<svg width="238" height="35" viewBox="0 0 238 35" fill="none" xmlns="http://www.w3.org/2000/svg">
<rect width="238" height="35" rx="17.5" fill="#EC6D2D"/>
<path d="M53.8239 14.795C54.8239 14.795 55.6039 15.01 56.1639 15.44C56.7339 15.87 57.0189 16.455 57.0189 17.195C57.0189 17.935 56.7339 18.52 56.1639 18.95C55.6039 19.38 54.8239 19.595 53.8239 19.595C52.8239 19.595 52.0389 19.38 51.4689 18.95C50.9089 18.52 50.6289 17.935 50.6289 17.195C50.6289 16.455 50.9089 15.87 51.4689 15.44C52.0389 15.01 52.8239 14.795 53.8239 14.795ZM53.8239 11.18C54.0239 11.18 54.1989 11.23 54.3489 11.33C54.4989 11.43 54.5739 11.59 54.5739 11.81V12.755H57.2589C57.4389 12.755 57.5689 12.82 57.6489 12.95C57.7389 13.08 57.7839 13.23 57.7839 13.4C57.7839 13.57 57.7389 13.72 57.6489 13.85C57.5689 13.97 57.4389 14.03 57.2589 14.03H50.2389C50.0589 14.03 49.9239 13.97 49.8339 13.85C49.7539 13.72 49.7139 13.57 49.7139 13.4C49.7139 13.23 49.7539 13.08 49.8339 12.95C49.9239 12.82 50.0589 12.755 50.2389 12.755H53.0739V11.81C53.0739 11.59 53.1489 11.43 53.2989 11.33C53.4589 11.23 53.6339 11.18 53.8239 11.18ZM53.8239 15.965C53.2239 15.965 52.7639 16.08 52.4439 16.31C52.1339 16.54 51.9789 16.835 51.9789 17.195C51.9789 17.555 52.1339 17.85 52.4439 18.08C52.7639 18.31 53.2239 18.425 53.8239 18.425C54.4339 18.425 54.8939 18.31 55.2039 18.08C55.5139 17.85 55.6689 17.555 55.6689 17.195C55.6689 16.835 55.5139 16.54 55.2039 16.31C54.8939 16.08 54.4339 15.965 53.8239 15.965ZM59.6739 11.33C59.8739 11.33 60.0489 11.38 60.1989 11.48C60.3489 11.58 60.4239 11.74 60.4239 11.96V14.855H62.0889C62.2789 14.855 62.4139 14.92 62.4939 15.05C62.5839 15.18 62.6289 15.33 62.6289 15.5C62.6289 15.68 62.5839 15.835 62.4939 15.965C62.4139 16.095 62.2789 16.16 62.0889 16.16H60.4239V19.37C60.4239 19.58 60.3489 19.735 60.1989 19.835C60.0489 19.935 59.8739 19.985 59.6739 19.985C59.4839 19.985 59.3139 19.935 59.1639 19.835C59.0139 19.735 58.9389 19.58 58.9389 19.37V11.96C58.9389 11.74 59.0139 11.58 59.1639 11.48C59.3139 11.38 59.4839 11.33 59.6739 11.33ZM59.2689 20.645C59.7089 20.645 60.0089 20.725 60.1689 20.885C60.3389 21.045 60.4239 21.34 60.4239 21.77V24.65C60.4239 24.87 60.3489 25.03 60.1989 25.13C60.0489 25.23 59.8739 25.28 59.6739 25.28C59.4839 25.28 59.3139 25.23 59.1639 25.13C59.0139 25.03 58.9389 24.87 58.9389 24.65V22.22C58.9389 22.02 58.8339 21.92 58.6239 21.92H52.0839C51.8939 21.92 51.7539 21.86 51.6639 21.74C51.5839 21.61 51.5439 21.46 51.5439 21.29C51.5439 21.12 51.5839 20.97 51.6639 20.84C51.7539 20.71 51.8939 20.645 52.0839 20.645H59.2689ZM67.5962 11.87C67.7962 11.87 67.9712 11.92 68.1212 12.02C68.2712 12.12 68.3462 12.28 68.3462 12.5V13.865C68.3462 14.345 68.3962 14.76 68.4962 15.11C68.6062 15.45 68.8212 15.78 69.1412 16.1C69.4212 16.38 69.6812 16.635 69.9212 16.865C70.1612 17.085 70.4012 17.305 70.6412 17.525C70.7812 17.645 70.8512 17.795 70.8512 17.975C70.8512 18.155 70.7912 18.315 70.6712 18.455C70.5612 18.595 70.4162 18.675 70.2362 18.695C70.0562 18.715 69.8862 18.655 69.7262 18.515C69.5362 18.355 69.3412 18.185 69.1412 18.005C68.9412 17.815 68.7362 17.62 68.5262 17.42C68.2262 17.13 68.0062 16.885 67.8662 16.685C67.7262 16.485 67.6412 16.315 67.6112 16.175H67.5962C67.5662 16.345 67.4912 16.525 67.3712 16.715C67.2512 16.905 67.0162 17.165 66.6662 17.495C66.4062 17.755 66.1662 17.985 65.9462 18.185C65.7262 18.385 65.4862 18.595 65.2262 18.815C65.0862 18.935 64.9262 18.985 64.7462 18.965C64.5662 18.935 64.4162 18.85 64.2962 18.71C64.1762 18.57 64.1112 18.41 64.1012 18.23C64.0912 18.05 64.1562 17.895 64.2962 17.765C64.5762 17.535 64.8662 17.28 65.1662 17C65.4662 16.71 65.7612 16.425 66.0512 16.145C66.3712 15.815 66.5812 15.48 66.6812 15.14C66.7912 14.79 66.8462 14.375 66.8462 13.895V12.5C66.8462 12.28 66.9212 12.12 67.0712 12.02C67.2212 11.92 67.3962 11.87 67.5962 11.87ZM75.2012 11.33C75.3812 11.33 75.5412 11.38 75.6812 11.48C75.8312 11.57 75.9062 11.715 75.9062 11.915V19.085C75.9062 19.285 75.8312 19.435 75.6812 19.535C75.5412 19.625 75.3812 19.67 75.2012 19.67C75.0312 19.67 74.8712 19.625 74.7212 19.535C74.5812 19.435 74.5112 19.285 74.5112 19.085V15.935H72.9062V18.455C72.9062 18.655 72.8312 18.805 72.6812 18.905C72.5412 18.995 72.3812 19.04 72.2012 19.04C72.0312 19.04 71.8712 18.995 71.7212 18.905C71.5812 18.805 71.5112 18.655 71.5112 18.455V11.99C71.5112 11.79 71.5812 11.645 71.7212 11.555C71.8712 11.455 72.0312 11.405 72.2012 11.405C72.3812 11.405 72.5412 11.455 72.6812 11.555C72.8312 11.645 72.9062 11.79 72.9062 11.99V14.675H74.5112V11.915C74.5112 11.715 74.5812 11.57 74.7212 11.48C74.8712 11.38 75.0312 11.33 75.2012 11.33ZM71.3312 19.685C72.7712 19.685 73.8862 19.925 74.6762 20.405C75.4762 20.875 75.8762 21.58 75.8762 22.52C75.8762 23.46 75.4762 24.165 74.6762 24.635C73.8862 25.115 72.7712 25.355 71.3312 25.355C69.8912 25.355 68.7712 25.115 67.9712 24.635C67.1812 24.165 66.7862 23.46 66.7862 22.52C66.7862 21.58 67.1812 20.875 67.9712 20.405C68.7712 19.925 69.8912 19.685 71.3312 19.685ZM71.3312 20.9C70.2612 20.9 69.4812 21.045 68.9912 21.335C68.5112 21.625 68.2712 22.02 68.2712 22.52C68.2712 23.02 68.5112 23.415 68.9912 23.705C69.4812 23.995 70.2612 24.14 71.3312 24.14C72.4012 24.14 73.1762 23.995 73.6562 23.705C74.1462 23.415 74.3912 23.02 74.3912 22.52C74.3912 22.02 74.1462 21.625 73.6562 21.335C73.1762 21.045 72.4012 20.9 71.3312 20.9ZM87.2186 11.18C87.4186 11.18 87.5936 11.23 87.7436 11.33C87.8936 11.43 87.9686 11.59 87.9686 11.81V12.92H90.4886C90.6686 12.92 90.7986 12.985 90.8786 13.115C90.9686 13.245 91.0136 13.395 91.0136 13.565C91.0136 13.735 90.9686 13.885 90.8786 14.015C90.7986 14.135 90.6686 14.195 90.4886 14.195H87.9686V14.795C87.9686 15.245 88.0386 15.615 88.1786 15.905C88.3286 16.185 88.5736 16.455 88.9136 16.715C89.6236 17.225 90.2236 17.635 90.7136 17.945C90.8836 18.055 90.9786 18.2 90.9986 18.38C91.0286 18.56 90.9886 18.725 90.8786 18.875C90.7986 19.005 90.6736 19.1 90.5036 19.16C90.3336 19.21 90.1536 19.18 89.9636 19.07C89.7736 18.95 89.5386 18.8 89.2586 18.62C88.9886 18.43 88.6986 18.22 88.3886 17.99C87.9986 17.7 87.7186 17.465 87.5486 17.285C87.3786 17.095 87.2786 16.925 87.2486 16.775H87.2336C87.1936 16.945 87.0836 17.13 86.9036 17.33C86.7336 17.53 86.4486 17.775 86.0486 18.065C85.7286 18.295 85.4186 18.515 85.1186 18.725C84.8186 18.925 84.5136 19.125 84.2036 19.325C84.0336 19.435 83.8636 19.46 83.6936 19.4C83.5236 19.33 83.3986 19.225 83.3186 19.085C83.2186 18.945 83.1736 18.785 83.1836 18.605C83.1936 18.425 83.2886 18.28 83.4686 18.17C83.8186 17.94 84.1586 17.715 84.4886 17.495C84.8186 17.265 85.1636 17.015 85.5236 16.745C85.8636 16.495 86.1036 16.23 86.2436 15.95C86.3936 15.66 86.4686 15.285 86.4686 14.825V14.195H83.8436C83.6536 14.195 83.5136 14.135 83.4236 14.015C83.3436 13.885 83.3036 13.735 83.3036 13.565C83.3036 13.395 83.3436 13.245 83.4236 13.115C83.5136 12.985 83.6536 12.92 83.8436 12.92H86.4686V11.81C86.4686 11.59 86.5436 11.43 86.6936 11.33C86.8536 11.23 87.0286 11.18 87.2186 11.18ZM92.9786 11.33C93.1786 11.33 93.3536 11.38 93.5036 11.48C93.6536 11.58 93.7286 11.74 93.7286 11.96V14.795H95.3786C95.5786 14.795 95.7186 14.86 95.7986 14.99C95.8886 15.12 95.9336 15.27 95.9336 15.44C95.9336 15.63 95.8886 15.79 95.7986 15.92C95.7186 16.04 95.5786 16.1 95.3786 16.1H93.7286V19.235C93.7286 19.445 93.6536 19.6 93.5036 19.7C93.3536 19.8 93.1786 19.85 92.9786 19.85C92.7786 19.85 92.6036 19.8 92.4536 19.7C92.3036 19.6 92.2286 19.445 92.2286 19.235V11.96C92.2286 11.74 92.3036 11.58 92.4536 11.48C92.6036 11.38 92.7786 11.33 92.9786 11.33ZM89.5136 19.985C90.8836 19.985 91.9386 20.215 92.6786 20.675C93.4286 21.125 93.8036 21.79 93.8036 22.67C93.8036 23.55 93.4286 24.215 92.6786 24.665C91.9386 25.125 90.8836 25.355 89.5136 25.355C88.1436 25.355 87.0836 25.125 86.3336 24.665C85.5936 24.215 85.2236 23.55 85.2236 22.67C85.2236 21.79 85.5936 21.125 86.3336 20.675C87.0836 20.215 88.1436 19.985 89.5136 19.985ZM89.5136 21.2C88.5236 21.2 87.8086 21.335 87.3686 21.605C86.9286 21.875 86.7086 22.23 86.7086 22.67C86.7086 23.11 86.9286 23.465 87.3686 23.735C87.8086 24.005 88.5236 24.14 89.5136 24.14C90.5036 24.14 91.2186 24.005 91.6586 23.735C92.0986 23.475 92.3186 23.12 92.3186 22.67C92.3186 22.22 92.0986 21.865 91.6586 21.605C91.2186 21.335 90.5036 21.2 89.5136 21.2ZM101.351 11.855C101.931 11.855 102.436 11.94 102.866 12.11C103.296 12.27 103.651 12.495 103.931 12.785C104.221 13.075 104.436 13.42 104.576 13.82C104.726 14.21 104.801 14.635 104.801 15.095C104.801 15.565 104.726 16 104.576 16.4C104.436 16.79 104.221 17.13 103.931 17.42C103.651 17.71 103.296 17.94 102.866 18.11C102.436 18.27 101.931 18.35 101.351 18.35C100.771 18.35 100.266 18.27 99.8359 18.11C99.4059 17.94 99.0459 17.71 98.7559 17.42C98.4759 17.13 98.2609 16.79 98.1109 16.4C97.9709 16 97.9009 15.565 97.9009 15.095C97.9009 14.635 97.9709 14.21 98.1109 13.82C98.2609 13.42 98.4759 13.075 98.7559 12.785C99.0459 12.495 99.4059 12.27 99.8359 12.11C100.266 11.94 100.771 11.855 101.351 11.855ZM101.351 13.1C100.991 13.1 100.681 13.155 100.421 13.265C100.171 13.365 99.9659 13.51 99.8059 13.7C99.6459 13.88 99.5259 14.09 99.4459 14.33C99.3759 14.57 99.3409 14.825 99.3409 15.095C99.3409 15.365 99.3759 15.62 99.4459 15.86C99.5259 16.1 99.6459 16.315 99.8059 16.505C99.9659 16.685 100.171 16.83 100.421 16.94C100.681 17.04 100.991 17.09 101.351 17.09C101.711 17.09 102.016 17.04 102.266 16.94C102.526 16.83 102.736 16.685 102.896 16.505C103.056 16.315 103.171 16.1 103.241 15.86C103.321 15.62 103.361 15.365 103.361 15.095C103.361 14.825 103.321 14.57 103.241 14.33C103.171 14.09 103.056 13.88 102.896 13.7C102.736 13.51 102.526 13.365 102.266 13.265C102.016 13.155 101.711 13.1 101.351 13.1ZM108.131 11.33C108.321 11.33 108.491 11.38 108.641 11.48C108.791 11.58 108.866 11.74 108.866 11.96V18.125C108.866 18.345 108.791 18.505 108.641 18.605C108.491 18.705 108.321 18.755 108.131 18.755C107.931 18.755 107.756 18.705 107.606 18.605C107.456 18.505 107.381 18.345 107.381 18.125V15.74H103.841V14.465H107.381V11.96C107.381 11.74 107.456 11.58 107.606 11.48C107.756 11.38 107.931 11.33 108.131 11.33ZM100.766 19.4C100.956 19.4 101.126 19.45 101.276 19.55C101.436 19.65 101.516 19.805 101.516 20.015V21.275H107.396V20.015C107.396 19.805 107.471 19.65 107.621 19.55C107.771 19.45 107.936 19.4 108.116 19.4C108.316 19.4 108.491 19.45 108.641 19.55C108.791 19.65 108.866 19.805 108.866 20.015V23.96C108.866 24.39 108.781 24.685 108.611 24.845C108.451 25.005 108.151 25.085 107.711 25.085H101.201C100.761 25.085 100.456 25.005 100.286 24.845C100.126 24.685 100.046 24.39 100.046 23.96V20.015C100.046 19.805 100.121 19.65 100.271 19.55C100.421 19.45 100.586 19.4 100.766 19.4ZM101.516 23.54C101.516 23.65 101.536 23.73 101.576 23.78C101.626 23.83 101.711 23.855 101.831 23.855H107.081C107.291 23.855 107.396 23.75 107.396 23.54V22.475H101.516V23.54ZM118.168 11.705C119.628 11.705 120.758 11.97 121.558 12.5C122.358 13.02 122.758 13.78 122.758 14.78C122.758 15.78 122.358 16.545 121.558 17.075C120.758 17.595 119.628 17.855 118.168 17.855C116.708 17.855 115.578 17.595 114.778 17.075C113.978 16.545 113.578 15.78 113.578 14.78C113.578 13.78 113.978 13.02 114.778 12.5C115.578 11.97 116.708 11.705 118.168 11.705ZM118.168 12.98C117.088 12.98 116.303 13.145 115.813 13.475C115.323 13.805 115.078 14.24 115.078 14.78C115.078 15.32 115.323 15.755 115.813 16.085C116.303 16.415 117.088 16.58 118.168 16.58C119.248 16.58 120.033 16.415 120.523 16.085C121.013 15.755 121.258 15.32 121.258 14.78C121.258 14.24 121.013 13.805 120.523 13.475C120.033 13.145 119.248 12.98 118.168 12.98ZM123.943 19.22C124.123 19.22 124.253 19.285 124.333 19.415C124.423 19.545 124.468 19.695 124.468 19.865C124.468 20.035 124.423 20.18 124.333 20.3C124.253 20.42 124.123 20.48 123.943 20.48H121.033V24.65C121.033 24.87 120.958 25.025 120.808 25.115C120.668 25.215 120.508 25.265 120.328 25.265C120.138 25.265 119.968 25.215 119.818 25.115C119.668 25.025 119.593 24.87 119.593 24.65V20.48H116.743V24.65C116.743 24.87 116.668 25.025 116.518 25.115C116.368 25.215 116.203 25.265 116.023 25.265C115.833 25.265 115.663 25.215 115.513 25.115C115.373 25.025 115.303 24.87 115.303 24.65V20.48H112.393C112.213 20.48 112.078 20.42 111.988 20.3C111.908 20.18 111.868 20.035 111.868 19.865C111.868 19.695 111.908 19.545 111.988 19.415C112.078 19.285 112.213 19.22 112.393 19.22H123.943ZM132.046 12.065C132.486 12.065 132.786 12.145 132.946 12.305C133.116 12.465 133.201 12.76 133.201 13.19V17.24C133.201 17.67 133.116 17.965 132.946 18.125C132.786 18.285 132.486 18.365 132.046 18.365H127.921C127.481 18.365 127.176 18.285 127.006 18.125C126.846 17.965 126.766 17.67 126.766 17.24V13.19C126.766 12.76 126.846 12.465 127.006 12.305C127.176 12.145 127.481 12.065 127.921 12.065H132.046ZM128.566 13.34C128.446 13.34 128.361 13.365 128.311 13.415C128.271 13.455 128.251 13.535 128.251 13.655V16.79C128.251 16.9 128.271 16.98 128.311 17.03C128.361 17.08 128.446 17.105 128.566 17.105H131.401C131.611 17.105 131.716 17 131.716 16.79V13.655C131.716 13.535 131.691 13.455 131.641 13.415C131.591 13.365 131.511 13.34 131.401 13.34H128.566ZM136.186 11.33C136.386 11.33 136.561 11.38 136.711 11.48C136.861 11.58 136.936 11.74 136.936 11.96V14.645H138.586C138.786 14.645 138.926 14.71 139.006 14.84C139.096 14.97 139.141 15.12 139.141 15.29C139.141 15.48 139.096 15.64 139.006 15.77C138.926 15.89 138.786 15.95 138.586 15.95H136.936V18.935C136.936 19.145 136.861 19.3 136.711 19.4C136.561 19.5 136.386 19.55 136.186 19.55C135.986 19.55 135.811 19.5 135.661 19.4C135.511 19.3 135.436 19.145 135.436 18.935V11.96C135.436 11.74 135.511 11.58 135.661 11.48C135.811 11.38 135.986 11.33 136.186 11.33ZM132.721 19.685C134.091 19.685 135.146 19.925 135.886 20.405C136.636 20.875 137.011 21.58 137.011 22.52C137.011 23.46 136.636 24.165 135.886 24.635C135.146 25.115 134.091 25.355 132.721 25.355C131.351 25.355 130.291 25.115 129.541 24.635C128.801 24.165 128.431 23.46 128.431 22.52C128.431 21.58 128.801 20.875 129.541 20.405C130.291 19.925 131.351 19.685 132.721 19.685ZM132.721 20.9C131.731 20.9 131.016 21.05 130.576 21.35C130.136 21.64 129.916 22.03 129.916 22.52C129.916 23.02 130.136 23.415 130.576 23.705C131.016 23.995 131.731 24.14 132.721 24.14C133.711 24.14 134.426 23.995 134.866 23.705C135.306 23.415 135.526 23.02 135.526 22.52C135.526 22.02 135.306 21.625 134.866 21.335C134.426 21.045 133.711 20.9 132.721 20.9ZM147.513 12.005C147.693 12.005 147.823 12.07 147.903 12.2C147.993 12.32 148.038 12.465 148.038 12.635C148.038 12.805 147.993 12.955 147.903 13.085C147.823 13.205 147.693 13.265 147.513 13.265H143.328C143.208 13.265 143.123 13.29 143.073 13.34C143.033 13.38 143.013 13.46 143.013 13.58V14.765H147.378C147.548 14.765 147.673 14.825 147.753 14.945C147.843 15.065 147.888 15.21 147.888 15.38C147.888 15.55 147.843 15.695 147.753 15.815C147.673 15.935 147.548 15.995 147.378 15.995H143.013V17.225C143.013 17.335 143.033 17.415 143.073 17.465C143.123 17.505 143.208 17.525 143.328 17.525C144.398 17.525 145.363 17.5 146.223 17.45C147.093 17.4 147.933 17.32 148.743 17.21C148.913 17.19 149.048 17.23 149.148 17.33C149.258 17.43 149.323 17.565 149.343 17.735C149.363 17.905 149.338 18.065 149.268 18.215C149.208 18.355 149.093 18.435 148.923 18.455C148.573 18.505 148.193 18.55 147.783 18.59C147.383 18.63 146.928 18.665 146.418 18.695C145.918 18.725 145.358 18.75 144.738 18.77C144.128 18.78 143.443 18.785 142.683 18.785C142.243 18.785 141.938 18.705 141.768 18.545C141.608 18.385 141.528 18.09 141.528 17.66V13.13C141.528 12.7 141.608 12.405 141.768 12.245C141.938 12.085 142.243 12.005 142.683 12.005H147.513ZM151.233 11.33C151.433 11.33 151.608 11.38 151.758 11.48C151.908 11.58 151.983 11.74 151.983 11.96V18.815C151.983 19.035 151.908 19.195 151.758 19.295C151.608 19.395 151.433 19.445 151.233 19.445C151.033 19.445 150.858 19.395 150.708 19.295C150.558 19.195 150.483 19.035 150.483 18.815V11.96C150.483 11.74 150.558 11.58 150.708 11.48C150.858 11.38 151.033 11.33 151.233 11.33ZM150.828 20.09C151.268 20.09 151.568 20.17 151.728 20.33C151.898 20.49 151.983 20.785 151.983 21.215V23.96C151.983 24.39 151.898 24.685 151.728 24.845C151.568 25.005 151.268 25.085 150.828 25.085H144.378C143.938 25.085 143.633 25.005 143.463 24.845C143.303 24.685 143.223 24.39 143.223 23.96V21.215C143.223 20.785 143.303 20.49 143.463 20.33C143.633 20.17 143.938 20.09 144.378 20.09H150.828ZM145.023 21.35C144.813 21.35 144.708 21.45 144.708 21.65V23.525C144.708 23.725 144.813 23.825 145.023 23.825H150.183C150.393 23.825 150.498 23.725 150.498 23.525V21.65C150.498 21.45 150.393 21.35 150.183 21.35H145.023ZM163.355 12.11C163.925 12.11 164.425 12.18 164.855 12.32C165.285 12.46 165.64 12.655 165.92 12.905C166.21 13.155 166.425 13.445 166.565 13.775C166.715 14.105 166.79 14.455 166.79 14.825V14.9C166.79 15.16 166.75 15.415 166.67 15.665C166.6 15.915 166.49 16.155 166.34 16.385C166.19 16.605 165.995 16.805 165.755 16.985C165.525 17.155 165.25 17.29 164.93 17.39C165.25 17.44 165.55 17.53 165.83 17.66C166.11 17.78 166.35 17.94 166.55 18.14C166.76 18.34 166.925 18.585 167.045 18.875C167.165 19.155 167.225 19.475 167.225 19.835V19.985C167.225 20.395 167.145 20.79 166.985 21.17C166.835 21.55 166.6 21.885 166.28 22.175C165.97 22.455 165.575 22.68 165.095 22.85C164.625 23.02 164.075 23.105 163.445 23.105C162.245 23.105 161.22 22.815 160.37 22.235C160.18 22.115 160.07 21.965 160.04 21.785C160.01 21.595 160.05 21.415 160.16 21.245C160.27 21.065 160.405 20.955 160.565 20.915C160.735 20.875 160.91 20.91 161.09 21.02C161.46 21.27 161.825 21.455 162.185 21.575C162.545 21.695 162.94 21.755 163.37 21.755C163.79 21.755 164.15 21.705 164.45 21.605C164.75 21.505 164.99 21.375 165.17 21.215C165.36 21.045 165.495 20.85 165.575 20.63C165.665 20.41 165.71 20.18 165.71 19.94V19.82C165.71 19.49 165.65 19.215 165.53 18.995C165.41 18.775 165.245 18.6 165.035 18.47C164.825 18.33 164.575 18.23 164.285 18.17C163.995 18.11 163.68 18.08 163.34 18.08H162.485C162.295 18.08 162.155 18.015 162.065 17.885C161.985 17.755 161.945 17.6 161.945 17.42C161.945 17.24 161.985 17.09 162.065 16.97C162.155 16.84 162.295 16.775 162.485 16.775H163.22C163.83 16.775 164.33 16.635 164.72 16.355C165.12 16.075 165.32 15.625 165.32 15.005V14.96C165.32 14.5 165.155 14.13 164.825 13.85C164.505 13.57 164.015 13.43 163.355 13.43C162.935 13.43 162.57 13.505 162.26 13.655C161.96 13.805 161.68 14.025 161.42 14.315C161.28 14.455 161.12 14.52 160.94 14.51C160.77 14.49 160.625 14.41 160.505 14.27C160.375 14.13 160.315 13.98 160.325 13.82C160.335 13.65 160.395 13.495 160.505 13.355C160.795 12.995 161.18 12.7 161.66 12.47C162.15 12.23 162.715 12.11 163.355 12.11ZM173.531 12.11C174.881 12.11 175.856 12.55 176.456 13.43C177.066 14.31 177.371 15.58 177.371 17.24V17.975C177.371 19.635 177.066 20.905 176.456 21.785C175.856 22.665 174.881 23.105 173.531 23.105C172.181 23.105 171.201 22.665 170.591 21.785C169.991 20.905 169.691 19.635 169.691 17.975V17.24C169.691 15.58 169.991 14.31 170.591 13.43C171.201 12.55 172.181 12.11 173.531 12.11ZM173.531 13.52C173.091 13.52 172.721 13.595 172.421 13.745C172.121 13.895 171.881 14.13 171.701 14.45C171.521 14.76 171.391 15.155 171.311 15.635C171.241 16.115 171.206 16.69 171.206 17.36V17.855C171.206 18.525 171.241 19.1 171.311 19.58C171.391 20.06 171.521 20.46 171.701 20.78C171.881 21.09 172.121 21.32 172.421 21.47C172.721 21.62 173.091 21.695 173.531 21.695C173.971 21.695 174.341 21.62 174.641 21.47C174.941 21.32 175.181 21.09 175.361 20.78C175.541 20.46 175.666 20.06 175.736 19.58C175.816 19.1 175.856 18.525 175.856 17.855V17.36C175.856 16.69 175.816 16.115 175.736 15.635C175.666 15.155 175.541 14.76 175.361 14.45C175.181 14.13 174.941 13.895 174.641 13.745C174.341 13.595 173.971 13.52 173.531 13.52ZM183.436 12.11C184.786 12.11 185.761 12.55 186.361 13.43C186.971 14.31 187.276 15.58 187.276 17.24V17.975C187.276 19.635 186.971 20.905 186.361 21.785C185.761 22.665 184.786 23.105 183.436 23.105C182.086 23.105 181.106 22.665 180.496 21.785C179.896 20.905 179.596 19.635 179.596 17.975V17.24C179.596 15.58 179.896 14.31 180.496 13.43C181.106 12.55 182.086 12.11 183.436 12.11ZM183.436 13.52C182.996 13.52 182.626 13.595 182.326 13.745C182.026 13.895 181.786 14.13 181.606 14.45C181.426 14.76 181.296 15.155 181.216 15.635C181.146 16.115 181.111 16.69 181.111 17.36V17.855C181.111 18.525 181.146 19.1 181.216 19.58C181.296 20.06 181.426 20.46 181.606 20.78C181.786 21.09 182.026 21.32 182.326 21.47C182.626 21.62 182.996 21.695 183.436 21.695C183.876 21.695 184.246 21.62 184.546 21.47C184.846 21.32 185.086 21.09 185.266 20.78C185.446 20.46 185.571 20.06 185.641 19.58C185.721 19.1 185.761 18.525 185.761 17.855V17.36C185.761 16.69 185.721 16.115 185.641 15.635C185.571 15.155 185.446 14.76 185.266 14.45C185.086 14.13 184.846 13.895 184.546 13.745C184.246 13.595 183.876 13.52 183.436 13.52Z" fill="white"/>
</svg>
