<svg width="238" height="35" viewBox="0 0 238 35" fill="none" xmlns="http://www.w3.org/2000/svg">
<rect width="238" height="35" rx="17.5" fill="#24292E"/>
<path d="M73.2618 12.095C73.7018 12.095 74.0018 12.175 74.1618 12.335C74.3318 12.495 74.4168 12.79 74.4168 13.22V14.36C74.4168 14.71 74.3868 15.025 74.3268 15.305C74.2768 15.585 74.1768 15.85 74.0268 16.1C73.8768 16.34 73.6718 16.57 73.4118 16.79C73.1518 17.01 72.8218 17.245 72.4218 17.495C72.0218 17.735 71.5368 17.995 70.9668 18.275C70.4068 18.555 69.7468 18.875 68.9868 19.235C68.8068 19.315 68.6318 19.32 68.4618 19.25C68.3018 19.17 68.1818 19.05 68.1018 18.89C68.0318 18.74 68.0068 18.575 68.0268 18.395C68.0468 18.215 68.1568 18.08 68.3568 17.99C69.4068 17.51 70.2318 17.11 70.8318 16.79C71.4418 16.47 71.8968 16.185 72.1968 15.935C72.5068 15.675 72.7018 15.425 72.7818 15.185C72.8718 14.935 72.9168 14.64 72.9168 14.3V13.7C72.9168 13.59 72.8918 13.51 72.8418 13.46C72.8018 13.41 72.7218 13.385 72.6018 13.385H68.6868C68.5068 13.385 68.3718 13.325 68.2818 13.205C68.2018 13.075 68.1618 12.925 68.1618 12.755C68.1618 12.575 68.2018 12.42 68.2818 12.29C68.3718 12.16 68.5068 12.095 68.6868 12.095H73.2618ZM77.9268 11.33C78.1268 11.33 78.3018 11.38 78.4518 11.48C78.6018 11.58 78.6768 11.74 78.6768 11.96V19.67C78.6768 19.89 78.6018 20.05 78.4518 20.15C78.3018 20.25 78.1268 20.3 77.9268 20.3C77.7268 20.3 77.5518 20.25 77.4018 20.15C77.2518 20.05 77.1768 19.89 77.1768 19.67V11.96C77.1768 11.74 77.2518 11.58 77.4018 11.48C77.5518 11.38 77.7268 11.33 77.9268 11.33ZM74.2968 19.385C74.4968 19.385 74.6718 19.435 74.8218 19.535C74.9718 19.635 75.0468 19.795 75.0468 20.015V20.57C75.0468 20.82 75.0668 21.04 75.1068 21.23C75.1568 21.42 75.2318 21.59 75.3318 21.74C75.4318 21.89 75.5618 22.03 75.7218 22.16C75.8818 22.29 76.0768 22.415 76.3068 22.535C76.7268 22.765 77.1518 22.985 77.5818 23.195C78.0218 23.405 78.4718 23.61 78.9318 23.81C79.0918 23.89 79.1868 24.01 79.2168 24.17C79.2568 24.34 79.2368 24.505 79.1568 24.665C79.0768 24.825 78.9618 24.94 78.8118 25.01C78.6618 25.08 78.4968 25.075 78.3168 24.995C77.8868 24.805 77.4768 24.615 77.0868 24.425C76.7068 24.245 76.3368 24.055 75.9768 23.855C75.3868 23.545 74.9718 23.28 74.7318 23.06C74.5018 22.85 74.3618 22.65 74.3118 22.46H74.2968C74.2468 22.66 74.1018 22.87 73.8618 23.09C73.6218 23.31 73.2068 23.575 72.6168 23.885C72.2568 24.085 71.8818 24.275 71.4918 24.455C71.1118 24.645 70.7068 24.835 70.2768 25.025C70.0968 25.105 69.9318 25.11 69.7818 25.04C69.6318 24.97 69.5168 24.855 69.4368 24.695C69.3568 24.525 69.3318 24.355 69.3618 24.185C69.3918 24.015 69.4868 23.89 69.6468 23.81C70.1168 23.61 70.5668 23.405 70.9968 23.195C71.4268 22.985 71.8518 22.765 72.2718 22.535C72.5018 22.415 72.6968 22.29 72.8568 22.16C73.0268 22.03 73.1618 21.89 73.2618 21.74C73.3618 21.59 73.4318 21.42 73.4718 21.23C73.5218 21.04 73.5468 20.82 73.5468 20.57V20.015C73.5468 19.795 73.6218 19.635 73.7718 19.535C73.9218 19.435 74.0968 19.385 74.2968 19.385ZM86.0441 15.47C86.5441 15.47 86.9891 15.545 87.3791 15.695C87.7791 15.835 88.1141 16.035 88.3841 16.295C88.6641 16.555 88.8741 16.865 89.0141 17.225C89.1641 17.585 89.2391 17.985 89.2391 18.425C89.2391 18.865 89.1641 19.265 89.0141 19.625C88.8741 19.985 88.6641 20.295 88.3841 20.555C88.1141 20.815 87.7791 21.02 87.3791 21.17C86.9891 21.31 86.5441 21.38 86.0441 21.38C85.5441 21.38 85.0941 21.31 84.6941 21.17C84.3041 21.02 83.9691 20.815 83.6891 20.555C83.4191 20.295 83.2091 19.985 83.0591 19.625C82.9191 19.265 82.8491 18.865 82.8491 18.425C82.8491 17.985 82.9191 17.585 83.0591 17.225C83.2091 16.865 83.4191 16.555 83.6891 16.295C83.9691 16.035 84.3041 15.835 84.6941 15.695C85.0941 15.545 85.5441 15.47 86.0441 15.47ZM86.0441 11.3C86.2441 11.3 86.4191 11.35 86.5691 11.45C86.7191 11.55 86.7941 11.71 86.7941 11.93V13.22H89.4641C89.6441 13.22 89.7741 13.285 89.8541 13.415C89.9441 13.535 89.9891 13.68 89.9891 13.85C89.9891 14.02 89.9441 14.17 89.8541 14.3C89.7741 14.43 89.6441 14.495 89.4641 14.495H82.4591C82.2791 14.495 82.1441 14.43 82.0541 14.3C81.9741 14.17 81.9341 14.02 81.9341 13.85C81.9341 13.68 81.9741 13.535 82.0541 13.415C82.1441 13.285 82.2791 13.22 82.4591 13.22H85.2941V11.93C85.2941 11.71 85.3691 11.55 85.5191 11.45C85.6791 11.35 85.8541 11.3 86.0441 11.3ZM86.0441 16.685C85.4741 16.685 85.0241 16.845 84.6941 17.165C84.3741 17.475 84.2141 17.895 84.2141 18.425C84.2141 18.945 84.3741 19.365 84.6941 19.685C85.0241 20.005 85.4741 20.165 86.0441 20.165C86.6141 20.165 87.0591 20.005 87.3791 19.685C87.7091 19.365 87.8741 18.945 87.8741 18.425C87.8741 17.895 87.7091 17.475 87.3791 17.165C87.0591 16.845 86.6141 16.685 86.0441 16.685ZM92.4191 11.33C92.6191 11.33 92.7941 11.38 92.9441 11.48C93.0941 11.58 93.1691 11.74 93.1691 11.96V23.66C93.1691 23.88 93.0941 24.04 92.9441 24.14C92.7941 24.24 92.6191 24.29 92.4191 24.29C92.2391 24.29 92.0691 24.24 91.9091 24.14C91.7591 24.04 91.6841 23.88 91.6841 23.66V17.57H90.0641C89.8741 17.57 89.7341 17.51 89.6441 17.39C89.5641 17.26 89.5241 17.105 89.5241 16.925C89.5241 16.745 89.5641 16.595 89.6441 16.475C89.7341 16.345 89.8741 16.28 90.0641 16.28H91.6841V11.96C91.6841 11.74 91.7591 11.58 91.9091 11.48C92.0691 11.38 92.2391 11.33 92.4191 11.33ZM98.6165 12.02C98.8065 12.02 98.9765 12.075 99.1265 12.185C99.2865 12.285 99.3665 12.44 99.3665 12.65V14.465H105.576V12.65C105.576 12.44 105.651 12.285 105.801 12.185C105.961 12.075 106.131 12.02 106.311 12.02C106.511 12.02 106.686 12.075 106.836 12.185C106.996 12.285 107.076 12.44 107.076 12.65V17.99C107.076 18.42 106.991 18.715 106.821 18.875C106.661 19.035 106.361 19.115 105.921 19.115H99.0215C98.5815 19.115 98.2815 19.035 98.1215 18.875C97.9615 18.715 97.8815 18.42 97.8815 17.99V12.65C97.8815 12.44 97.9565 12.285 98.1065 12.185C98.2565 12.075 98.4265 12.02 98.6165 12.02ZM99.3665 17.54C99.3665 17.75 99.4715 17.855 99.6815 17.855H105.261C105.471 17.855 105.576 17.75 105.576 17.54V15.725H99.3665V17.54ZM108.246 21.695C108.426 21.695 108.556 21.76 108.636 21.89C108.726 22.01 108.771 22.16 108.771 22.34C108.771 22.51 108.726 22.66 108.636 22.79C108.556 22.92 108.426 22.985 108.246 22.985H96.6965C96.5165 22.985 96.3815 22.92 96.2915 22.79C96.2115 22.66 96.1715 22.51 96.1715 22.34C96.1715 22.16 96.2115 22.01 96.2915 21.89C96.3815 21.76 96.5165 21.695 96.6965 21.695H108.246ZM120.249 12.11C120.689 12.11 120.989 12.19 121.149 12.35C121.319 12.51 121.404 12.805 121.404 13.235V15.23C121.404 15.65 121.319 15.94 121.149 16.1C120.989 16.26 120.689 16.34 120.249 16.34H114.114C113.904 16.34 113.799 16.445 113.799 16.655V17.78C113.799 17.98 113.904 18.08 114.114 18.08H121.209C121.389 18.08 121.519 18.145 121.599 18.275C121.689 18.405 121.734 18.555 121.734 18.725C121.734 18.895 121.689 19.045 121.599 19.175C121.519 19.295 121.389 19.355 121.209 19.355H113.484C113.044 19.355 112.739 19.275 112.569 19.115C112.409 18.955 112.329 18.66 112.329 18.23V16.235C112.329 15.805 112.409 15.515 112.569 15.365C112.739 15.205 113.044 15.125 113.484 15.125H119.619C119.829 15.125 119.934 15.02 119.934 14.81V13.7C119.934 13.49 119.829 13.385 119.619 13.385H112.824C112.644 13.385 112.509 13.325 112.419 13.205C112.339 13.075 112.299 12.925 112.299 12.755C112.299 12.585 112.339 12.435 112.419 12.305C112.509 12.175 112.644 12.11 112.824 12.11H120.249ZM117.624 21.71H122.649C122.829 21.71 122.959 21.775 123.039 21.905C123.129 22.025 123.174 22.17 123.174 22.34C123.174 22.51 123.129 22.66 123.039 22.79C122.959 22.92 122.829 22.985 122.649 22.985H111.099C110.919 22.985 110.784 22.92 110.694 22.79C110.614 22.66 110.574 22.51 110.574 22.34C110.574 22.17 110.614 22.025 110.694 21.905C110.784 21.775 110.919 21.71 111.099 21.71H116.124V18.71H117.624V21.71ZM139.151 12.11C139.591 12.11 139.891 12.19 140.051 12.35C140.221 12.51 140.306 12.805 140.306 13.235V15.23C140.306 15.65 140.221 15.94 140.051 16.1C139.891 16.26 139.591 16.34 139.151 16.34H133.016C132.806 16.34 132.701 16.445 132.701 16.655V17.78C132.701 17.98 132.806 18.08 133.016 18.08H140.111C140.291 18.08 140.421 18.145 140.501 18.275C140.591 18.405 140.636 18.555 140.636 18.725C140.636 18.895 140.591 19.045 140.501 19.175C140.421 19.295 140.291 19.355 140.111 19.355H132.386C131.946 19.355 131.641 19.275 131.471 19.115C131.311 18.955 131.231 18.66 131.231 18.23V16.235C131.231 15.805 131.311 15.515 131.471 15.365C131.641 15.205 131.946 15.125 132.386 15.125H138.521C138.731 15.125 138.836 15.02 138.836 14.81V13.7C138.836 13.49 138.731 13.385 138.521 13.385H131.726C131.546 13.385 131.411 13.325 131.321 13.205C131.241 13.075 131.201 12.925 131.201 12.755C131.201 12.585 131.241 12.435 131.321 12.305C131.411 12.175 131.546 12.11 131.726 12.11H139.151ZM136.526 21.71H141.551C141.731 21.71 141.861 21.775 141.941 21.905C142.031 22.025 142.076 22.17 142.076 22.34C142.076 22.51 142.031 22.66 141.941 22.79C141.861 22.92 141.731 22.985 141.551 22.985H130.001C129.821 22.985 129.686 22.92 129.596 22.79C129.516 22.66 129.476 22.51 129.476 22.34C129.476 22.17 129.516 22.025 129.596 21.905C129.686 21.775 129.821 21.71 130.001 21.71H135.026V18.71H136.526V21.71ZM153.509 12.35C153.949 12.35 154.249 12.43 154.409 12.59C154.579 12.75 154.664 13.045 154.664 13.475V14.72C154.664 15.77 154.624 16.73 154.544 17.6C154.474 18.47 154.354 19.3 154.184 20.09C154.144 20.29 154.034 20.43 153.854 20.51C153.684 20.59 153.489 20.61 153.269 20.57C153.089 20.53 152.939 20.45 152.819 20.33C152.699 20.21 152.664 20.05 152.714 19.85C152.874 19.02 152.989 18.2 153.059 17.39C153.129 16.57 153.164 15.77 153.164 14.99V13.985C153.164 13.865 153.139 13.785 153.089 13.745C153.039 13.695 152.959 13.67 152.849 13.67H145.964C145.774 13.67 145.639 13.605 145.559 13.475C145.479 13.345 145.439 13.195 145.439 13.025C145.439 12.835 145.479 12.675 145.559 12.545C145.639 12.415 145.774 12.35 145.964 12.35H153.509ZM155.954 21.695C156.134 21.695 156.264 21.76 156.344 21.89C156.434 22.01 156.479 22.16 156.479 22.34C156.479 22.51 156.434 22.66 156.344 22.79C156.264 22.92 156.134 22.985 155.954 22.985H144.404C144.224 22.985 144.089 22.92 143.999 22.79C143.919 22.66 143.879 22.51 143.879 22.34C143.879 22.16 143.919 22.01 143.999 21.89C144.089 21.76 144.224 21.695 144.404 21.695H155.954ZM162.301 12.005C162.881 12.005 163.391 12.095 163.831 12.275C164.271 12.455 164.636 12.7 164.926 13.01C165.216 13.32 165.431 13.69 165.571 14.12C165.721 14.54 165.796 14.995 165.796 15.485C165.796 15.985 165.721 16.45 165.571 16.88C165.431 17.3 165.216 17.665 164.926 17.975C164.636 18.285 164.271 18.53 163.831 18.71C163.391 18.89 162.881 18.98 162.301 18.98C161.711 18.98 161.196 18.89 160.756 18.71C160.326 18.53 159.966 18.285 159.676 17.975C159.386 17.665 159.166 17.3 159.016 16.88C158.876 16.45 158.806 15.985 158.806 15.485C158.806 14.995 158.876 14.54 159.016 14.12C159.166 13.69 159.386 13.32 159.676 13.01C159.966 12.7 160.326 12.455 160.756 12.275C161.196 12.095 161.711 12.005 162.301 12.005ZM162.301 13.28C161.931 13.28 161.616 13.34 161.356 13.46C161.096 13.57 160.881 13.73 160.711 13.94C160.551 14.14 160.431 14.375 160.351 14.645C160.281 14.905 160.246 15.185 160.246 15.485C160.246 15.785 160.281 16.07 160.351 16.34C160.431 16.61 160.551 16.845 160.711 17.045C160.881 17.245 161.096 17.405 161.356 17.525C161.616 17.645 161.931 17.705 162.301 17.705C162.671 17.705 162.986 17.645 163.246 17.525C163.506 17.405 163.716 17.245 163.876 17.045C164.046 16.845 164.166 16.61 164.236 16.34C164.316 16.07 164.356 15.785 164.356 15.485C164.356 15.185 164.316 14.905 164.236 14.645C164.166 14.375 164.046 14.14 163.876 13.94C163.716 13.73 163.506 13.57 163.246 13.46C162.986 13.34 162.671 13.28 162.301 13.28ZM168.841 11.33C169.041 11.33 169.216 11.38 169.366 11.48C169.516 11.58 169.591 11.74 169.591 11.96V20.84C169.591 21.06 169.516 21.22 169.366 21.32C169.216 21.42 169.041 21.47 168.841 21.47C168.641 21.47 168.466 21.42 168.316 21.32C168.166 21.22 168.091 21.06 168.091 20.84V11.96C168.091 11.74 168.166 11.58 168.316 11.48C168.466 11.38 168.641 11.33 168.841 11.33ZM161.596 20.21C161.786 20.21 161.956 20.26 162.106 20.36C162.266 20.46 162.346 20.62 162.346 20.84V23.375C162.346 23.485 162.366 23.56 162.406 23.6C162.456 23.65 162.541 23.675 162.661 23.675H169.411C169.601 23.675 169.736 23.74 169.816 23.87C169.906 24 169.951 24.155 169.951 24.335C169.951 24.505 169.906 24.655 169.816 24.785C169.736 24.915 169.601 24.98 169.411 24.98H161.986C161.546 24.98 161.241 24.9 161.071 24.74C160.911 24.58 160.831 24.285 160.831 23.855V20.84C160.831 20.62 160.906 20.46 161.056 20.36C161.216 20.26 161.396 20.21 161.596 20.21Z" fill="white"/>
</svg>
