<svg width="238" height="35" viewBox="0 0 238 35" fill="none" xmlns="http://www.w3.org/2000/svg">
<rect width="238" height="35" rx="17.5" fill="#272822"/>
<path d="M58.6495 12.335C59.0895 12.335 59.3895 12.415 59.5495 12.575C59.7195 12.735 59.8045 13.03 59.8045 13.46V15.35C59.8045 15.8 59.7745 16.205 59.7145 16.565C59.6645 16.915 59.5695 17.245 59.4295 17.555C59.2895 17.855 59.0945 18.15 58.8445 18.44C58.5945 18.72 58.2695 19.015 57.8695 19.325C57.4795 19.625 57.0045 19.95 56.4445 20.3C55.8845 20.65 55.2295 21.045 54.4795 21.485C54.3195 21.575 54.1545 21.595 53.9845 21.545C53.8145 21.495 53.6795 21.39 53.5795 21.23C53.4795 21.08 53.4395 20.91 53.4595 20.72C53.4795 20.53 53.5745 20.385 53.7445 20.285C54.5245 19.835 55.1795 19.45 55.7095 19.13C56.2395 18.8 56.6745 18.505 57.0145 18.245C57.3645 17.985 57.6295 17.74 57.8095 17.51C57.9995 17.28 58.1345 17.035 58.2145 16.775L53.8195 17.03C53.6395 17.05 53.5045 17 53.4145 16.88C53.3245 16.75 53.2695 16.595 53.2495 16.415C53.2395 16.255 53.2695 16.105 53.3395 15.965C53.4195 15.825 53.5545 15.75 53.7445 15.74L58.3495 15.53V13.94C58.3495 13.82 58.3245 13.74 58.2745 13.7C58.2245 13.65 58.1445 13.625 58.0345 13.625H54.1495C53.9595 13.625 53.8195 13.56 53.7295 13.43C53.6495 13.3 53.6095 13.15 53.6095 12.98C53.6095 12.81 53.6495 12.66 53.7295 12.53C53.8195 12.4 53.9595 12.335 54.1495 12.335H58.6495ZM62.8795 11.33C63.0795 11.33 63.2545 11.38 63.4045 11.48C63.5545 11.58 63.6295 11.74 63.6295 11.96V15.86H65.2795C65.4795 15.86 65.6195 15.925 65.6995 16.055C65.7895 16.175 65.8345 16.325 65.8345 16.505C65.8345 16.685 65.7895 16.84 65.6995 16.97C65.6195 17.1 65.4795 17.165 65.2795 17.165H63.6295V23.66C63.6295 23.88 63.5545 24.04 63.4045 24.14C63.2545 24.24 63.0795 24.29 62.8795 24.29C62.6795 24.29 62.5045 24.24 62.3545 24.14C62.2045 24.04 62.1295 23.88 62.1295 23.66V11.96C62.1295 11.74 62.2045 11.58 62.3545 11.48C62.5045 11.38 62.6795 11.33 62.8795 11.33ZM73.0518 12.335C73.4918 12.335 73.7918 12.415 73.9518 12.575C74.1218 12.735 74.2068 13.03 74.2068 13.46V15.35C74.2068 15.8 74.1768 16.205 74.1168 16.565C74.0668 16.915 73.9718 17.245 73.8318 17.555C73.6918 17.855 73.4968 18.15 73.2468 18.44C72.9968 18.72 72.6718 19.015 72.2718 19.325C71.8818 19.625 71.4068 19.95 70.8468 20.3C70.2868 20.65 69.6318 21.045 68.8818 21.485C68.7218 21.575 68.5568 21.595 68.3868 21.545C68.2168 21.495 68.0818 21.39 67.9818 21.23C67.8818 21.08 67.8418 20.91 67.8618 20.72C67.8818 20.53 67.9768 20.385 68.1468 20.285C68.9268 19.835 69.5818 19.45 70.1118 19.13C70.6418 18.8 71.0768 18.505 71.4168 18.245C71.7668 17.985 72.0318 17.74 72.2118 17.51C72.4018 17.28 72.5368 17.035 72.6168 16.775L68.2218 17.03C68.0418 17.05 67.9068 17 67.8168 16.88C67.7268 16.75 67.6718 16.595 67.6518 16.415C67.6418 16.255 67.6718 16.105 67.7418 15.965C67.8218 15.825 67.9568 15.75 68.1468 15.74L72.7518 15.53V13.94C72.7518 13.82 72.7268 13.74 72.6768 13.7C72.6268 13.65 72.5468 13.625 72.4368 13.625H68.5518C68.3618 13.625 68.2218 13.56 68.1318 13.43C68.0518 13.3 68.0118 13.15 68.0118 12.98C68.0118 12.81 68.0518 12.66 68.1318 12.53C68.2218 12.4 68.3618 12.335 68.5518 12.335H73.0518ZM77.2818 11.33C77.4818 11.33 77.6568 11.38 77.8068 11.48C77.9568 11.58 78.0318 11.74 78.0318 11.96V15.86H79.6818C79.8818 15.86 80.0218 15.925 80.1018 16.055C80.1918 16.175 80.2368 16.325 80.2368 16.505C80.2368 16.685 80.1918 16.84 80.1018 16.97C80.0218 17.1 79.8818 17.165 79.6818 17.165H78.0318V23.66C78.0318 23.88 77.9568 24.04 77.8068 24.14C77.6568 24.24 77.4818 24.29 77.2818 24.29C77.0818 24.29 76.9068 24.24 76.7568 24.14C76.6068 24.04 76.5318 23.88 76.5318 23.66V11.96C76.5318 11.74 76.6068 11.58 76.7568 11.48C76.9068 11.38 77.0818 11.33 77.2818 11.33ZM88.0691 11.855C88.7891 11.855 89.4341 11.94 90.0041 12.11C90.5841 12.27 91.0691 12.51 91.4591 12.83C91.8591 13.14 92.1641 13.525 92.3741 13.985C92.5841 14.435 92.6891 14.945 92.6891 15.515C92.6891 16.085 92.5841 16.6 92.3741 17.06C92.1641 17.51 91.8591 17.895 91.4591 18.215C91.0691 18.525 90.5841 18.765 90.0041 18.935C89.4341 19.095 88.7891 19.175 88.0691 19.175C86.6191 19.175 85.4891 18.855 84.6791 18.215C83.8691 17.565 83.4641 16.665 83.4641 15.515C83.4641 14.365 83.8691 13.47 84.6791 12.83C85.4891 12.18 86.6191 11.855 88.0691 11.855ZM88.0691 13.13C87.5291 13.13 87.0641 13.19 86.6741 13.31C86.2841 13.43 85.9591 13.6 85.6991 13.82C85.4491 14.03 85.2641 14.28 85.1441 14.57C85.0241 14.86 84.9641 15.175 84.9641 15.515C84.9641 15.855 85.0241 16.17 85.1441 16.46C85.2641 16.75 85.4491 17.005 85.6991 17.225C85.9591 17.435 86.2841 17.6 86.6741 17.72C87.0641 17.84 87.5291 17.9 88.0691 17.9C88.6091 17.9 89.0741 17.84 89.4641 17.72C89.8541 17.6 90.1741 17.435 90.4241 17.225C90.6841 17.005 90.8741 16.75 90.9941 16.46C91.1141 16.17 91.1741 15.855 91.1741 15.515C91.1741 15.175 91.1141 14.86 90.9941 14.57C90.8741 14.28 90.6841 14.03 90.4241 13.82C90.1741 13.6 89.8541 13.43 89.4641 13.31C89.0741 13.19 88.6091 13.13 88.0691 13.13ZM88.8191 21.71H93.8441C94.0241 21.71 94.1541 21.775 94.2341 21.905C94.3241 22.025 94.3691 22.17 94.3691 22.34C94.3691 22.51 94.3241 22.66 94.2341 22.79C94.1541 22.92 94.0241 22.985 93.8441 22.985H82.2941C82.1141 22.985 81.9791 22.92 81.8891 22.79C81.8091 22.66 81.7691 22.51 81.7691 22.34C81.7691 22.17 81.8091 22.025 81.8891 21.905C81.9791 21.775 82.1141 21.71 82.2941 21.71H87.3191V18.215H88.8191V21.71ZM106.521 11.75C106.691 11.75 106.811 11.81 106.881 11.93C106.961 12.04 107.001 12.18 107.001 12.35C107.001 12.51 106.961 12.65 106.881 12.77C106.811 12.88 106.691 12.935 106.521 12.935H99.5915C99.4315 12.935 99.3515 13.015 99.3515 13.175V14.06H106.371C106.541 14.06 106.661 14.12 106.731 14.24C106.811 14.35 106.851 14.48 106.851 14.63C106.851 14.79 106.811 14.925 106.731 15.035C106.661 15.145 106.541 15.2 106.371 15.2H99.3515V16.115C99.3515 16.265 99.4315 16.34 99.5915 16.34H106.776C106.946 16.34 107.066 16.4 107.136 16.52C107.216 16.64 107.256 16.78 107.256 16.94C107.256 17.1 107.216 17.24 107.136 17.36C107.066 17.48 106.946 17.54 106.776 17.54H99.0665C98.6265 17.54 98.3215 17.46 98.1515 17.3C97.9915 17.14 97.9115 16.845 97.9115 16.415V12.875C97.9115 12.445 97.9915 12.15 98.1515 11.99C98.3215 11.83 98.6265 11.75 99.0665 11.75H106.521ZM103.206 18.755H108.261C108.431 18.755 108.556 18.815 108.636 18.935C108.726 19.055 108.771 19.2 108.771 19.37C108.771 19.54 108.726 19.685 108.636 19.805C108.556 19.925 108.431 19.985 108.261 19.985H96.6815C96.5115 19.985 96.3815 19.925 96.2915 19.805C96.2115 19.685 96.1715 19.54 96.1715 19.37C96.1715 19.2 96.2115 19.055 96.2915 18.935C96.3815 18.815 96.5115 18.755 96.6815 18.755H101.736V16.94H103.206V18.755ZM105.921 20.975C106.361 20.975 106.661 21.055 106.821 21.215C106.991 21.375 107.076 21.67 107.076 22.1V24.71C107.076 24.93 106.996 25.09 106.836 25.19C106.686 25.29 106.516 25.34 106.326 25.34C106.136 25.34 105.961 25.29 105.801 25.19C105.651 25.09 105.576 24.93 105.576 24.71V22.52C105.576 22.41 105.551 22.33 105.501 22.28C105.461 22.23 105.381 22.205 105.261 22.205H98.2115C98.0315 22.205 97.9015 22.145 97.8215 22.025C97.7415 21.905 97.7015 21.76 97.7015 21.59C97.7015 21.42 97.7415 21.275 97.8215 21.155C97.9015 21.035 98.0315 20.975 98.2115 20.975H105.921ZM116.874 11.915C117.594 11.915 118.239 12 118.809 12.17C119.389 12.34 119.874 12.585 120.264 12.905C120.664 13.215 120.969 13.6 121.179 14.06C121.389 14.51 121.494 15.025 121.494 15.605C121.494 16.175 121.389 16.69 121.179 17.15C120.969 17.6 120.664 17.985 120.264 18.305C119.874 18.615 119.389 18.855 118.809 19.025C118.239 19.195 117.594 19.28 116.874 19.28C115.424 19.28 114.294 18.955 113.484 18.305C112.674 17.655 112.269 16.755 112.269 15.605C112.269 15.025 112.374 14.51 112.584 14.06C112.794 13.6 113.094 13.215 113.484 12.905C113.884 12.585 114.369 12.34 114.939 12.17C115.509 12 116.154 11.915 116.874 11.915ZM116.874 13.19C116.334 13.19 115.869 13.25 115.479 13.37C115.089 13.49 114.764 13.66 114.504 13.88C114.254 14.1 114.069 14.36 113.949 14.66C113.829 14.95 113.769 15.265 113.769 15.605C113.769 15.945 113.829 16.265 113.949 16.565C114.069 16.855 114.254 17.11 114.504 17.33C114.764 17.54 115.089 17.705 115.479 17.825C115.869 17.945 116.334 18.005 116.874 18.005C117.414 18.005 117.879 17.945 118.269 17.825C118.659 17.705 118.979 17.54 119.229 17.33C119.489 17.11 119.679 16.855 119.799 16.565C119.919 16.265 119.979 15.945 119.979 15.605C119.979 15.265 119.919 14.95 119.799 14.66C119.679 14.36 119.489 14.1 119.229 13.88C118.979 13.66 118.659 13.49 118.269 13.37C117.879 13.25 117.414 13.19 116.874 13.19ZM122.649 21.695C122.829 21.695 122.959 21.76 123.039 21.89C123.129 22.01 123.174 22.16 123.174 22.34C123.174 22.51 123.129 22.66 123.039 22.79C122.959 22.92 122.829 22.985 122.649 22.985H111.099C110.919 22.985 110.784 22.92 110.694 22.79C110.614 22.66 110.574 22.51 110.574 22.34C110.574 22.16 110.614 22.01 110.694 21.89C110.784 21.76 110.919 21.695 111.099 21.695H122.649ZM134.651 12.11C135.091 12.11 135.391 12.19 135.551 12.35C135.721 12.51 135.806 12.805 135.806 13.235V15.23C135.806 15.65 135.721 15.94 135.551 16.1C135.391 16.26 135.091 16.34 134.651 16.34H128.516C128.306 16.34 128.201 16.445 128.201 16.655V17.78C128.201 17.98 128.306 18.08 128.516 18.08H135.611C135.791 18.08 135.921 18.145 136.001 18.275C136.091 18.405 136.136 18.555 136.136 18.725C136.136 18.895 136.091 19.045 136.001 19.175C135.921 19.295 135.791 19.355 135.611 19.355H127.886C127.446 19.355 127.141 19.275 126.971 19.115C126.811 18.955 126.731 18.66 126.731 18.23V16.235C126.731 15.805 126.811 15.515 126.971 15.365C127.141 15.205 127.446 15.125 127.886 15.125H134.021C134.231 15.125 134.336 15.02 134.336 14.81V13.7C134.336 13.49 134.231 13.385 134.021 13.385H127.226C127.046 13.385 126.911 13.325 126.821 13.205C126.741 13.075 126.701 12.925 126.701 12.755C126.701 12.585 126.741 12.435 126.821 12.305C126.911 12.175 127.046 12.11 127.226 12.11H134.651ZM132.026 21.71H137.051C137.231 21.71 137.361 21.775 137.441 21.905C137.531 22.025 137.576 22.17 137.576 22.34C137.576 22.51 137.531 22.66 137.441 22.79C137.361 22.92 137.231 22.985 137.051 22.985H125.501C125.321 22.985 125.186 22.92 125.096 22.79C125.016 22.66 124.976 22.51 124.976 22.34C124.976 22.17 125.016 22.025 125.096 21.905C125.186 21.775 125.321 21.71 125.501 21.71H130.526V18.71H132.026V21.71ZM153.554 12.11C153.994 12.11 154.294 12.19 154.454 12.35C154.624 12.51 154.709 12.805 154.709 13.235V15.23C154.709 15.65 154.624 15.94 154.454 16.1C154.294 16.26 153.994 16.34 153.554 16.34H147.419C147.209 16.34 147.104 16.445 147.104 16.655V17.78C147.104 17.98 147.209 18.08 147.419 18.08H154.514C154.694 18.08 154.824 18.145 154.904 18.275C154.994 18.405 155.039 18.555 155.039 18.725C155.039 18.895 154.994 19.045 154.904 19.175C154.824 19.295 154.694 19.355 154.514 19.355H146.789C146.349 19.355 146.044 19.275 145.874 19.115C145.714 18.955 145.634 18.66 145.634 18.23V16.235C145.634 15.805 145.714 15.515 145.874 15.365C146.044 15.205 146.349 15.125 146.789 15.125H152.924C153.134 15.125 153.239 15.02 153.239 14.81V13.7C153.239 13.49 153.134 13.385 152.924 13.385H146.129C145.949 13.385 145.814 13.325 145.724 13.205C145.644 13.075 145.604 12.925 145.604 12.755C145.604 12.585 145.644 12.435 145.724 12.305C145.814 12.175 145.949 12.11 146.129 12.11H153.554ZM150.929 21.71H155.954C156.134 21.71 156.264 21.775 156.344 21.905C156.434 22.025 156.479 22.17 156.479 22.34C156.479 22.51 156.434 22.66 156.344 22.79C156.264 22.92 156.134 22.985 155.954 22.985H144.404C144.224 22.985 144.089 22.92 143.999 22.79C143.919 22.66 143.879 22.51 143.879 22.34C143.879 22.17 143.919 22.025 143.999 21.905C144.089 21.775 144.224 21.71 144.404 21.71H149.429V18.71H150.929V21.71ZM167.911 12.35C168.351 12.35 168.651 12.43 168.811 12.59C168.981 12.75 169.066 13.045 169.066 13.475V14.72C169.066 15.77 169.026 16.73 168.946 17.6C168.876 18.47 168.756 19.3 168.586 20.09C168.546 20.29 168.436 20.43 168.256 20.51C168.086 20.59 167.891 20.61 167.671 20.57C167.491 20.53 167.341 20.45 167.221 20.33C167.101 20.21 167.066 20.05 167.116 19.85C167.276 19.02 167.391 18.2 167.461 17.39C167.531 16.57 167.566 15.77 167.566 14.99V13.985C167.566 13.865 167.541 13.785 167.491 13.745C167.441 13.695 167.361 13.67 167.251 13.67H160.366C160.176 13.67 160.041 13.605 159.961 13.475C159.881 13.345 159.841 13.195 159.841 13.025C159.841 12.835 159.881 12.675 159.961 12.545C160.041 12.415 160.176 12.35 160.366 12.35H167.911ZM170.356 21.695C170.536 21.695 170.666 21.76 170.746 21.89C170.836 22.01 170.881 22.16 170.881 22.34C170.881 22.51 170.836 22.66 170.746 22.79C170.666 22.92 170.536 22.985 170.356 22.985H158.806C158.626 22.985 158.491 22.92 158.401 22.79C158.321 22.66 158.281 22.51 158.281 22.34C158.281 22.16 158.321 22.01 158.401 21.89C158.491 21.76 158.626 21.695 158.806 21.695H170.356ZM176.703 12.005C177.283 12.005 177.793 12.095 178.233 12.275C178.673 12.455 179.038 12.7 179.328 13.01C179.618 13.32 179.833 13.69 179.973 14.12C180.123 14.54 180.198 14.995 180.198 15.485C180.198 15.985 180.123 16.45 179.973 16.88C179.833 17.3 179.618 17.665 179.328 17.975C179.038 18.285 178.673 18.53 178.233 18.71C177.793 18.89 177.283 18.98 176.703 18.98C176.113 18.98 175.598 18.89 175.158 18.71C174.728 18.53 174.368 18.285 174.078 17.975C173.788 17.665 173.568 17.3 173.418 16.88C173.278 16.45 173.208 15.985 173.208 15.485C173.208 14.995 173.278 14.54 173.418 14.12C173.568 13.69 173.788 13.32 174.078 13.01C174.368 12.7 174.728 12.455 175.158 12.275C175.598 12.095 176.113 12.005 176.703 12.005ZM176.703 13.28C176.333 13.28 176.018 13.34 175.758 13.46C175.498 13.57 175.283 13.73 175.113 13.94C174.953 14.14 174.833 14.375 174.753 14.645C174.683 14.905 174.648 15.185 174.648 15.485C174.648 15.785 174.683 16.07 174.753 16.34C174.833 16.61 174.953 16.845 175.113 17.045C175.283 17.245 175.498 17.405 175.758 17.525C176.018 17.645 176.333 17.705 176.703 17.705C177.073 17.705 177.388 17.645 177.648 17.525C177.908 17.405 178.118 17.245 178.278 17.045C178.448 16.845 178.568 16.61 178.638 16.34C178.718 16.07 178.758 15.785 178.758 15.485C178.758 15.185 178.718 14.905 178.638 14.645C178.568 14.375 178.448 14.14 178.278 13.94C178.118 13.73 177.908 13.57 177.648 13.46C177.388 13.34 177.073 13.28 176.703 13.28ZM183.243 11.33C183.443 11.33 183.618 11.38 183.768 11.48C183.918 11.58 183.993 11.74 183.993 11.96V20.84C183.993 21.06 183.918 21.22 183.768 21.32C183.618 21.42 183.443 21.47 183.243 21.47C183.043 21.47 182.868 21.42 182.718 21.32C182.568 21.22 182.493 21.06 182.493 20.84V11.96C182.493 11.74 182.568 11.58 182.718 11.48C182.868 11.38 183.043 11.33 183.243 11.33ZM175.998 20.21C176.188 20.21 176.358 20.26 176.508 20.36C176.668 20.46 176.748 20.62 176.748 20.84V23.375C176.748 23.485 176.768 23.56 176.808 23.6C176.858 23.65 176.943 23.675 177.063 23.675H183.813C184.003 23.675 184.138 23.74 184.218 23.87C184.308 24 184.353 24.155 184.353 24.335C184.353 24.505 184.308 24.655 184.218 24.785C184.138 24.915 184.003 24.98 183.813 24.98H176.388C175.948 24.98 175.643 24.9 175.473 24.74C175.313 24.58 175.233 24.285 175.233 23.855V20.84C175.233 20.62 175.308 20.46 175.458 20.36C175.618 20.26 175.798 20.21 175.998 20.21Z" fill="white"/>
</svg>
