<svg width="238" height="35" viewBox="0 0 238 35" fill="none" xmlns="http://www.w3.org/2000/svg">
<rect width="238" height="35" rx="17.5" fill="#00B0F0"/>
<path d="M58.21 12.335C58.65 12.335 58.95 12.415 59.11 12.575C59.28 12.735 59.365 13.03 59.365 13.46V15.35C59.365 15.8 59.335 16.205 59.275 16.565C59.225 16.915 59.13 17.245 58.99 17.555C58.85 17.855 58.655 18.15 58.405 18.44C58.155 18.72 57.83 19.015 57.43 19.325C57.04 19.625 56.565 19.95 56.005 20.3C55.445 20.65 54.79 21.045 54.04 21.485C53.88 21.575 53.715 21.595 53.545 21.545C53.375 21.495 53.24 21.39 53.14 21.23C53.04 21.08 53 20.91 53.02 20.72C53.04 20.53 53.135 20.385 53.305 20.285C54.085 19.835 54.74 19.45 55.27 19.13C55.8 18.8 56.235 18.505 56.575 18.245C56.925 17.985 57.19 17.74 57.37 17.51C57.56 17.28 57.695 17.035 57.775 16.775L53.38 17.03C53.2 17.05 53.065 17 52.975 16.88C52.885 16.75 52.83 16.595 52.81 16.415C52.8 16.255 52.83 16.105 52.9 15.965C52.98 15.825 53.115 15.75 53.305 15.74L57.91 15.53V13.94C57.91 13.82 57.885 13.74 57.835 13.7C57.785 13.65 57.705 13.625 57.595 13.625H53.71C53.52 13.625 53.38 13.56 53.29 13.43C53.21 13.3 53.17 13.15 53.17 12.98C53.17 12.81 53.21 12.66 53.29 12.53C53.38 12.4 53.52 12.335 53.71 12.335H58.21ZM62.44 11.33C62.64 11.33 62.815 11.38 62.965 11.48C63.115 11.58 63.19 11.74 63.19 11.96V15.86H64.84C65.04 15.86 65.18 15.925 65.26 16.055C65.35 16.175 65.395 16.325 65.395 16.505C65.395 16.685 65.35 16.84 65.26 16.97C65.18 17.1 65.04 17.165 64.84 17.165H63.19V23.66C63.19 23.88 63.115 24.04 62.965 24.14C62.815 24.24 62.64 24.29 62.44 24.29C62.24 24.29 62.065 24.24 61.915 24.14C61.765 24.04 61.69 23.88 61.69 23.66V11.96C61.69 11.74 61.765 11.58 61.915 11.48C62.065 11.38 62.24 11.33 62.44 11.33ZM72.6123 12.335C73.0523 12.335 73.3523 12.415 73.5123 12.575C73.6823 12.735 73.7673 13.03 73.7673 13.46V15.35C73.7673 15.8 73.7373 16.205 73.6773 16.565C73.6273 16.915 73.5323 17.245 73.3923 17.555C73.2523 17.855 73.0573 18.15 72.8073 18.44C72.5573 18.72 72.2323 19.015 71.8323 19.325C71.4423 19.625 70.9673 19.95 70.4073 20.3C69.8473 20.65 69.1923 21.045 68.4423 21.485C68.2823 21.575 68.1173 21.595 67.9473 21.545C67.7773 21.495 67.6423 21.39 67.5423 21.23C67.4423 21.08 67.4023 20.91 67.4223 20.72C67.4423 20.53 67.5373 20.385 67.7073 20.285C68.4873 19.835 69.1423 19.45 69.6723 19.13C70.2023 18.8 70.6373 18.505 70.9773 18.245C71.3273 17.985 71.5923 17.74 71.7723 17.51C71.9623 17.28 72.0973 17.035 72.1773 16.775L67.7823 17.03C67.6023 17.05 67.4673 17 67.3773 16.88C67.2873 16.75 67.2323 16.595 67.2123 16.415C67.2023 16.255 67.2323 16.105 67.3023 15.965C67.3823 15.825 67.5173 15.75 67.7073 15.74L72.3123 15.53V13.94C72.3123 13.82 72.2873 13.74 72.2373 13.7C72.1873 13.65 72.1073 13.625 71.9973 13.625H68.1123C67.9223 13.625 67.7823 13.56 67.6923 13.43C67.6123 13.3 67.5723 13.15 67.5723 12.98C67.5723 12.81 67.6123 12.66 67.6923 12.53C67.7823 12.4 67.9223 12.335 68.1123 12.335H72.6123ZM76.8423 11.33C77.0423 11.33 77.2173 11.38 77.3673 11.48C77.5173 11.58 77.5923 11.74 77.5923 11.96V15.86H79.2423C79.4423 15.86 79.5823 15.925 79.6623 16.055C79.7523 16.175 79.7973 16.325 79.7973 16.505C79.7973 16.685 79.7523 16.84 79.6623 16.97C79.5823 17.1 79.4423 17.165 79.2423 17.165H77.5923V23.66C77.5923 23.88 77.5173 24.04 77.3673 24.14C77.2173 24.24 77.0423 24.29 76.8423 24.29C76.6423 24.29 76.4673 24.24 76.3173 24.14C76.1673 24.04 76.0923 23.88 76.0923 23.66V11.96C76.0923 11.74 76.1673 11.58 76.3173 11.48C76.4673 11.38 76.6423 11.33 76.8423 11.33ZM87.6297 11.855C88.3497 11.855 88.9947 11.94 89.5647 12.11C90.1447 12.27 90.6297 12.51 91.0197 12.83C91.4197 13.14 91.7247 13.525 91.9347 13.985C92.1447 14.435 92.2497 14.945 92.2497 15.515C92.2497 16.085 92.1447 16.6 91.9347 17.06C91.7247 17.51 91.4197 17.895 91.0197 18.215C90.6297 18.525 90.1447 18.765 89.5647 18.935C88.9947 19.095 88.3497 19.175 87.6297 19.175C86.1797 19.175 85.0497 18.855 84.2397 18.215C83.4297 17.565 83.0247 16.665 83.0247 15.515C83.0247 14.365 83.4297 13.47 84.2397 12.83C85.0497 12.18 86.1797 11.855 87.6297 11.855ZM87.6297 13.13C87.0897 13.13 86.6247 13.19 86.2347 13.31C85.8447 13.43 85.5197 13.6 85.2597 13.82C85.0097 14.03 84.8247 14.28 84.7047 14.57C84.5847 14.86 84.5247 15.175 84.5247 15.515C84.5247 15.855 84.5847 16.17 84.7047 16.46C84.8247 16.75 85.0097 17.005 85.2597 17.225C85.5197 17.435 85.8447 17.6 86.2347 17.72C86.6247 17.84 87.0897 17.9 87.6297 17.9C88.1697 17.9 88.6347 17.84 89.0247 17.72C89.4147 17.6 89.7347 17.435 89.9847 17.225C90.2447 17.005 90.4347 16.75 90.5547 16.46C90.6747 16.17 90.7347 15.855 90.7347 15.515C90.7347 15.175 90.6747 14.86 90.5547 14.57C90.4347 14.28 90.2447 14.03 89.9847 13.82C89.7347 13.6 89.4147 13.43 89.0247 13.31C88.6347 13.19 88.1697 13.13 87.6297 13.13ZM88.3797 21.71H93.4047C93.5847 21.71 93.7147 21.775 93.7947 21.905C93.8847 22.025 93.9297 22.17 93.9297 22.34C93.9297 22.51 93.8847 22.66 93.7947 22.79C93.7147 22.92 93.5847 22.985 93.4047 22.985H81.8547C81.6747 22.985 81.5397 22.92 81.4497 22.79C81.3697 22.66 81.3297 22.51 81.3297 22.34C81.3297 22.17 81.3697 22.025 81.4497 21.905C81.5397 21.775 81.6747 21.71 81.8547 21.71H86.8797V18.215H88.3797V21.71ZM106.082 11.75C106.252 11.75 106.372 11.81 106.442 11.93C106.522 12.04 106.562 12.18 106.562 12.35C106.562 12.51 106.522 12.65 106.442 12.77C106.372 12.88 106.252 12.935 106.082 12.935H99.152C98.992 12.935 98.912 13.015 98.912 13.175V14.06H105.932C106.102 14.06 106.222 14.12 106.292 14.24C106.372 14.35 106.412 14.48 106.412 14.63C106.412 14.79 106.372 14.925 106.292 15.035C106.222 15.145 106.102 15.2 105.932 15.2H98.912V16.115C98.912 16.265 98.992 16.34 99.152 16.34H106.337C106.507 16.34 106.627 16.4 106.697 16.52C106.777 16.64 106.817 16.78 106.817 16.94C106.817 17.1 106.777 17.24 106.697 17.36C106.627 17.48 106.507 17.54 106.337 17.54H98.627C98.187 17.54 97.882 17.46 97.712 17.3C97.552 17.14 97.472 16.845 97.472 16.415V12.875C97.472 12.445 97.552 12.15 97.712 11.99C97.882 11.83 98.187 11.75 98.627 11.75H106.082ZM102.767 18.755H107.822C107.992 18.755 108.117 18.815 108.197 18.935C108.287 19.055 108.332 19.2 108.332 19.37C108.332 19.54 108.287 19.685 108.197 19.805C108.117 19.925 107.992 19.985 107.822 19.985H96.242C96.072 19.985 95.942 19.925 95.852 19.805C95.772 19.685 95.732 19.54 95.732 19.37C95.732 19.2 95.772 19.055 95.852 18.935C95.942 18.815 96.072 18.755 96.242 18.755H101.297V16.94H102.767V18.755ZM105.482 20.975C105.922 20.975 106.222 21.055 106.382 21.215C106.552 21.375 106.637 21.67 106.637 22.1V24.71C106.637 24.93 106.557 25.09 106.397 25.19C106.247 25.29 106.077 25.34 105.887 25.34C105.697 25.34 105.522 25.29 105.362 25.19C105.212 25.09 105.137 24.93 105.137 24.71V22.52C105.137 22.41 105.112 22.33 105.062 22.28C105.022 22.23 104.942 22.205 104.822 22.205H97.772C97.592 22.205 97.462 22.145 97.382 22.025C97.302 21.905 97.262 21.76 97.262 21.59C97.262 21.42 97.302 21.275 97.382 21.155C97.462 21.035 97.592 20.975 97.772 20.975H105.482ZM116.434 11.915C117.154 11.915 117.799 12 118.369 12.17C118.949 12.34 119.434 12.585 119.824 12.905C120.224 13.215 120.529 13.6 120.739 14.06C120.949 14.51 121.054 15.025 121.054 15.605C121.054 16.175 120.949 16.69 120.739 17.15C120.529 17.6 120.224 17.985 119.824 18.305C119.434 18.615 118.949 18.855 118.369 19.025C117.799 19.195 117.154 19.28 116.434 19.28C114.984 19.28 113.854 18.955 113.044 18.305C112.234 17.655 111.829 16.755 111.829 15.605C111.829 15.025 111.934 14.51 112.144 14.06C112.354 13.6 112.654 13.215 113.044 12.905C113.444 12.585 113.929 12.34 114.499 12.17C115.069 12 115.714 11.915 116.434 11.915ZM116.434 13.19C115.894 13.19 115.429 13.25 115.039 13.37C114.649 13.49 114.324 13.66 114.064 13.88C113.814 14.1 113.629 14.36 113.509 14.66C113.389 14.95 113.329 15.265 113.329 15.605C113.329 15.945 113.389 16.265 113.509 16.565C113.629 16.855 113.814 17.11 114.064 17.33C114.324 17.54 114.649 17.705 115.039 17.825C115.429 17.945 115.894 18.005 116.434 18.005C116.974 18.005 117.439 17.945 117.829 17.825C118.219 17.705 118.539 17.54 118.789 17.33C119.049 17.11 119.239 16.855 119.359 16.565C119.479 16.265 119.539 15.945 119.539 15.605C119.539 15.265 119.479 14.95 119.359 14.66C119.239 14.36 119.049 14.1 118.789 13.88C118.539 13.66 118.219 13.49 117.829 13.37C117.439 13.25 116.974 13.19 116.434 13.19ZM122.209 21.695C122.389 21.695 122.519 21.76 122.599 21.89C122.689 22.01 122.734 22.16 122.734 22.34C122.734 22.51 122.689 22.66 122.599 22.79C122.519 22.92 122.389 22.985 122.209 22.985H110.659C110.479 22.985 110.344 22.92 110.254 22.79C110.174 22.66 110.134 22.51 110.134 22.34C110.134 22.16 110.174 22.01 110.254 21.89C110.344 21.76 110.479 21.695 110.659 21.695H122.209ZM134.212 12.11C134.652 12.11 134.952 12.19 135.112 12.35C135.282 12.51 135.367 12.805 135.367 13.235V15.23C135.367 15.65 135.282 15.94 135.112 16.1C134.952 16.26 134.652 16.34 134.212 16.34H128.077C127.867 16.34 127.762 16.445 127.762 16.655V17.78C127.762 17.98 127.867 18.08 128.077 18.08H135.172C135.352 18.08 135.482 18.145 135.562 18.275C135.652 18.405 135.697 18.555 135.697 18.725C135.697 18.895 135.652 19.045 135.562 19.175C135.482 19.295 135.352 19.355 135.172 19.355H127.447C127.007 19.355 126.702 19.275 126.532 19.115C126.372 18.955 126.292 18.66 126.292 18.23V16.235C126.292 15.805 126.372 15.515 126.532 15.365C126.702 15.205 127.007 15.125 127.447 15.125H133.582C133.792 15.125 133.897 15.02 133.897 14.81V13.7C133.897 13.49 133.792 13.385 133.582 13.385H126.787C126.607 13.385 126.472 13.325 126.382 13.205C126.302 13.075 126.262 12.925 126.262 12.755C126.262 12.585 126.302 12.435 126.382 12.305C126.472 12.175 126.607 12.11 126.787 12.11H134.212ZM131.587 21.71H136.612C136.792 21.71 136.922 21.775 137.002 21.905C137.092 22.025 137.137 22.17 137.137 22.34C137.137 22.51 137.092 22.66 137.002 22.79C136.922 22.92 136.792 22.985 136.612 22.985H125.062C124.882 22.985 124.747 22.92 124.657 22.79C124.577 22.66 124.537 22.51 124.537 22.34C124.537 22.17 124.577 22.025 124.657 21.905C124.747 21.775 124.882 21.71 125.062 21.71H130.087V18.71H131.587V21.71ZM153.114 12.11C153.554 12.11 153.854 12.19 154.014 12.35C154.184 12.51 154.269 12.805 154.269 13.235V15.23C154.269 15.65 154.184 15.94 154.014 16.1C153.854 16.26 153.554 16.34 153.114 16.34H146.979C146.769 16.34 146.664 16.445 146.664 16.655V17.78C146.664 17.98 146.769 18.08 146.979 18.08H154.074C154.254 18.08 154.384 18.145 154.464 18.275C154.554 18.405 154.599 18.555 154.599 18.725C154.599 18.895 154.554 19.045 154.464 19.175C154.384 19.295 154.254 19.355 154.074 19.355H146.349C145.909 19.355 145.604 19.275 145.434 19.115C145.274 18.955 145.194 18.66 145.194 18.23V16.235C145.194 15.805 145.274 15.515 145.434 15.365C145.604 15.205 145.909 15.125 146.349 15.125H152.484C152.694 15.125 152.799 15.02 152.799 14.81V13.7C152.799 13.49 152.694 13.385 152.484 13.385H145.689C145.509 13.385 145.374 13.325 145.284 13.205C145.204 13.075 145.164 12.925 145.164 12.755C145.164 12.585 145.204 12.435 145.284 12.305C145.374 12.175 145.509 12.11 145.689 12.11H153.114ZM150.489 21.71H155.514C155.694 21.71 155.824 21.775 155.904 21.905C155.994 22.025 156.039 22.17 156.039 22.34C156.039 22.51 155.994 22.66 155.904 22.79C155.824 22.92 155.694 22.985 155.514 22.985H143.964C143.784 22.985 143.649 22.92 143.559 22.79C143.479 22.66 143.439 22.51 143.439 22.34C143.439 22.17 143.479 22.025 143.559 21.905C143.649 21.775 143.784 21.71 143.964 21.71H148.989V18.71H150.489V21.71ZM167.471 12.35C167.911 12.35 168.211 12.43 168.371 12.59C168.541 12.75 168.626 13.045 168.626 13.475V14.72C168.626 15.77 168.586 16.73 168.506 17.6C168.436 18.47 168.316 19.3 168.146 20.09C168.106 20.29 167.996 20.43 167.816 20.51C167.646 20.59 167.451 20.61 167.231 20.57C167.051 20.53 166.901 20.45 166.781 20.33C166.661 20.21 166.626 20.05 166.676 19.85C166.836 19.02 166.951 18.2 167.021 17.39C167.091 16.57 167.126 15.77 167.126 14.99V13.985C167.126 13.865 167.101 13.785 167.051 13.745C167.001 13.695 166.921 13.67 166.811 13.67H159.926C159.736 13.67 159.601 13.605 159.521 13.475C159.441 13.345 159.401 13.195 159.401 13.025C159.401 12.835 159.441 12.675 159.521 12.545C159.601 12.415 159.736 12.35 159.926 12.35H167.471ZM169.916 21.695C170.096 21.695 170.226 21.76 170.306 21.89C170.396 22.01 170.441 22.16 170.441 22.34C170.441 22.51 170.396 22.66 170.306 22.79C170.226 22.92 170.096 22.985 169.916 22.985H158.366C158.186 22.985 158.051 22.92 157.961 22.79C157.881 22.66 157.841 22.51 157.841 22.34C157.841 22.16 157.881 22.01 157.961 21.89C158.051 21.76 158.186 21.695 158.366 21.695H169.916ZM176.264 12.005C176.844 12.005 177.354 12.095 177.794 12.275C178.234 12.455 178.599 12.7 178.889 13.01C179.179 13.32 179.394 13.69 179.534 14.12C179.684 14.54 179.759 14.995 179.759 15.485C179.759 15.985 179.684 16.45 179.534 16.88C179.394 17.3 179.179 17.665 178.889 17.975C178.599 18.285 178.234 18.53 177.794 18.71C177.354 18.89 176.844 18.98 176.264 18.98C175.674 18.98 175.159 18.89 174.719 18.71C174.289 18.53 173.929 18.285 173.639 17.975C173.349 17.665 173.129 17.3 172.979 16.88C172.839 16.45 172.769 15.985 172.769 15.485C172.769 14.995 172.839 14.54 172.979 14.12C173.129 13.69 173.349 13.32 173.639 13.01C173.929 12.7 174.289 12.455 174.719 12.275C175.159 12.095 175.674 12.005 176.264 12.005ZM176.264 13.28C175.894 13.28 175.579 13.34 175.319 13.46C175.059 13.57 174.844 13.73 174.674 13.94C174.514 14.14 174.394 14.375 174.314 14.645C174.244 14.905 174.209 15.185 174.209 15.485C174.209 15.785 174.244 16.07 174.314 16.34C174.394 16.61 174.514 16.845 174.674 17.045C174.844 17.245 175.059 17.405 175.319 17.525C175.579 17.645 175.894 17.705 176.264 17.705C176.634 17.705 176.949 17.645 177.209 17.525C177.469 17.405 177.679 17.245 177.839 17.045C178.009 16.845 178.129 16.61 178.199 16.34C178.279 16.07 178.319 15.785 178.319 15.485C178.319 15.185 178.279 14.905 178.199 14.645C178.129 14.375 178.009 14.14 177.839 13.94C177.679 13.73 177.469 13.57 177.209 13.46C176.949 13.34 176.634 13.28 176.264 13.28ZM182.804 11.33C183.004 11.33 183.179 11.38 183.329 11.48C183.479 11.58 183.554 11.74 183.554 11.96V20.84C183.554 21.06 183.479 21.22 183.329 21.32C183.179 21.42 183.004 21.47 182.804 21.47C182.604 21.47 182.429 21.42 182.279 21.32C182.129 21.22 182.054 21.06 182.054 20.84V11.96C182.054 11.74 182.129 11.58 182.279 11.48C182.429 11.38 182.604 11.33 182.804 11.33ZM175.559 20.21C175.749 20.21 175.919 20.26 176.069 20.36C176.229 20.46 176.309 20.62 176.309 20.84V23.375C176.309 23.485 176.329 23.56 176.369 23.6C176.419 23.65 176.504 23.675 176.624 23.675H183.374C183.564 23.675 183.699 23.74 183.779 23.87C183.869 24 183.914 24.155 183.914 24.335C183.914 24.505 183.869 24.655 183.779 24.785C183.699 24.915 183.564 24.98 183.374 24.98H175.949C175.509 24.98 175.204 24.9 175.034 24.74C174.874 24.58 174.794 24.285 174.794 23.855V20.84C174.794 20.62 174.869 20.46 175.019 20.36C175.179 20.26 175.359 20.21 175.559 20.21Z" fill="white"/>
</svg>
